<svg width="273" height="277" viewBox="0 0 273 277" fill="none" xmlns="http://www.w3.org/2000/svg">
<path fill-rule="evenodd" clip-rule="evenodd" d="M125.419 261.814C177.236 261.814 221.713 230.391 240.835 185.561C217.921 180.925 200.67 160.672 200.67 136.39C200.67 112.11 217.919 91.8582 240.832 87.2206C221.708 42.395 177.233 10.9756 125.419 10.9756C56.1521 10.9756 0 67.1277 0 136.395C0 205.662 56.1521 261.814 125.419 261.814ZM125.419 186.558C153.126 186.558 175.587 164.097 175.587 136.39C175.587 108.684 153.126 86.2227 125.419 86.2227C97.7126 86.2227 75.2517 108.684 75.2517 136.39C75.2517 164.097 97.7126 186.558 125.419 186.558ZM250.838 158.34C262.96 158.34 272.786 148.513 272.786 136.391C272.786 124.269 262.96 114.443 250.838 114.443C238.716 114.443 228.89 124.269 228.89 136.391C228.89 148.513 238.716 158.34 250.838 158.34Z" fill="black"/>
</svg>
