<svg width="2343" height="277" viewBox="0 0 2343 277" fill="none" xmlns="http://www.w3.org/2000/svg">
<path fill-rule="evenodd" clip-rule="evenodd" d="M125.419 261.814C177.236 261.814 221.713 230.391 240.835 185.561C217.921 180.925 200.67 160.672 200.67 136.39C200.67 112.11 217.919 91.8582 240.832 87.2206C221.708 42.395 177.233 10.9756 125.419 10.9756C56.1521 10.9756 0 67.1277 0 136.395C0 205.662 56.1521 261.814 125.419 261.814ZM125.419 186.558C153.126 186.558 175.587 164.097 175.587 136.39C175.587 108.684 153.126 86.2227 125.419 86.2227C97.7126 86.2227 75.2517 108.684 75.2517 136.39C75.2517 164.097 97.7126 186.558 125.419 186.558ZM250.838 158.34C262.96 158.34 272.786 148.513 272.786 136.391C272.786 124.269 262.96 114.443 250.838 114.443C238.716 114.443 228.89 124.269 228.89 136.391C228.89 148.513 238.716 158.34 250.838 158.34Z" fill="white"/>
<path d="M392.602 207V67.3516H452.172C478.734 67.3516 492.016 78.1914 492.016 99.8711C492.016 115.757 483.357 127.117 466.039 133.953C484.529 137.404 493.773 147.983 493.773 165.691C493.773 193.23 479.223 207 450.121 207H392.602ZM449.047 192.352C465.714 192.352 474.047 183.888 474.047 166.961C474.047 150.49 462.882 142.254 440.551 142.254H432.738V130.438C459.431 126.857 472.777 117.221 472.777 101.531C472.777 88.5104 465.355 82 450.512 82H410.668V192.352H449.047ZM543.48 67.3516V207H525.414V67.3516H543.48ZM685.18 202.117C673.135 206.023 660.115 207.977 646.117 207.977C597.289 207.977 572.875 183.725 572.875 135.223C572.875 89.3242 597.289 66.375 646.117 66.375C660.115 66.375 673.135 68.3281 685.18 72.2344V87.8594C673.135 83.3021 660.766 81.0234 648.07 81.0234C609.984 81.0234 590.941 99.0898 590.941 135.223C590.941 173.96 609.984 193.328 648.07 193.328C660.766 193.328 673.135 191.049 685.18 186.492V202.117ZM719.652 207H700.902L760.18 67.3516H780.199L839.77 207H819.75L801.684 163.055H755.492L760.473 148.406H795.629L769.555 85.125L719.652 207ZM858.812 207V67.3516H881.762L933.031 183.855L983.324 67.3516H1005.3V207H989.184V92.4492L939.574 207H925.316L874.926 92.4492V207H858.812ZM1129.81 67.3516V82H1056.57V128.875H1126.39V143.523H1056.57V192.352H1131.27V207H1038.5V67.3516H1129.81ZM1158.62 207V67.3516H1218.19C1244.75 67.3516 1258.03 78.5169 1258.03 100.848C1258.03 119.012 1245.04 132.456 1219.07 141.18L1267.02 207H1243.19L1198.75 144.207V132.391C1225.45 128.159 1238.79 117.905 1238.79 101.629C1238.79 88.7383 1231.37 82.293 1216.53 82.293H1176.68V207H1158.62ZM1290.75 207H1272L1331.27 67.3516H1351.29L1410.86 207H1390.84L1372.78 163.055H1326.59L1331.57 148.406H1366.72L1340.65 85.125L1290.75 207ZM1447.97 67.3516V192.352H1521.02V207H1429.91V67.3516H1447.97ZM1591.43 207V67.3516H1614.38L1665.65 183.855L1715.94 67.3516H1737.91V207H1721.8V92.4492L1672.19 207H1657.93L1607.54 92.4492V207H1591.43ZM1792.11 67.3516V207H1774.05V67.3516H1792.11ZM1828.34 207V67.3516H1846.41L1931.86 179.852V67.3516H1948.95V207H1930.88L1845.43 93.5234V207H1828.34ZM2033.03 192.352C2067.21 192.352 2084.3 172.69 2084.3 133.367C2084.3 99.1224 2067.21 82 2033.03 82H2000.32V192.352H2033.03ZM1982.25 207V67.3516H2033.03C2079.26 67.3516 2102.37 89.3568 2102.37 133.367C2102.37 182.456 2079.26 207 2033.03 207H1982.25ZM2126.78 202.117V185.516C2141.43 190.724 2157.25 193.328 2174.24 193.328C2198.27 193.328 2210.28 184.539 2210.28 166.961C2210.28 151.987 2201.42 144.5 2183.71 144.5H2165.75C2136.51 144.5 2121.9 131.805 2121.9 106.414C2121.9 79.7214 2140.62 66.375 2178.05 66.375C2194.33 66.375 2209.46 68.3281 2223.46 72.2344V88.8359C2209.46 83.6276 2194.33 81.0234 2178.05 81.0234C2152.66 81.0234 2139.96 89.487 2139.96 106.414C2139.96 121.388 2148.56 128.875 2165.75 128.875H2183.71C2213.47 128.875 2228.34 141.57 2228.34 166.961C2228.34 194.305 2210.31 207.977 2174.24 207.977C2157.25 207.977 2141.43 206.023 2126.78 202.117Z" fill="white"/>
</svg>
